<?xml version="1.0" standalone="no"?>
<!DOCTYPE svg PUBLIC "-//W3C//DTD SVG 20010904//EN"
 "http://www.w3.org/TR/2001/REC-SVG-20010904/DTD/svg10.dtd">
<svg version="1.0" xmlns="http://www.w3.org/2000/svg"
 width="1207.000000pt" height="1280.000000pt" viewBox="0 0 1207.000000 1280.000000"
 preserveAspectRatio="xMidYMid meet">
<metadata>
Created by potrace 1.15, written by Peter Selinger 2001-2017
</metadata>
<g transform="translate(0.000000,1280.000000) scale(0.100000,-0.100000)"
fill="#000000" stroke="none">
<path d="M7980 12789 c-1333 -12 -3263 -28 -4740 -39 -762 -6 -1543 -13 -1736
-16 l-350 -6 -81 -152 c-508 -948 -840 -1993 -982 -3086 -152 -1167 -109
-2445 129 -3796 284 -1609 793 -3282 1656 -5446 l99 -248 3945 0 3945 0 172
318 c1067 1968 1698 3717 1932 5357 72 502 96 836 95 1360 0 449 -12 646 -59
1021 -219 1727 -987 3219 -2337 4539 l-210 205 -331 -2 c-183 -1 -699 -5
-1147 -9z m-1435 -6206 c-192 -387 -281 -913 -345 -2048 -28 -498 -50 -848
-53 -851 -2 -2 -9 180 -16 404 -45 1530 -82 1999 -182 2336 -22 74 -66 173
-80 182 -26 16 9 19 199 19 174 1 227 4 332 24 69 13 134 27 145 32 55 22 55
12 0 -98z"/>
</g>
</svg>
